<?xml version="1.0" standalone="no"?>
<!DOCTYPE svg PUBLIC "-//W3C//DTD SVG 20010904//EN"
 "http://www.w3.org/TR/2001/REC-SVG-20010904/DTD/svg10.dtd">
<svg version="1.0" xmlns="http://www.w3.org/2000/svg"
 width="438.000000pt" height="108.000000pt" viewBox="0 0 438.000000 108.000000"
 preserveAspectRatio="xMidYMid meet">

<g transform="translate(0.000000,108.000000) scale(0.100000,-0.100000)"
fill="#000000" stroke="none">
<path d="M217 718 c-87 -23 -105 -154 -28 -204 18 -12 55 -19 124 -22 85 -4
100 -7 112 -26 17 -24 18 -35 5 -56 -7 -12 -39 -16 -142 -20 l-133 -5 0 -35 0
-35 135 0 c125 0 137 2 167 23 63 45 63 149 0 196 -22 16 -46 21 -125 24 -53
2 -103 9 -109 14 -20 16 -16 66 6 78 11 5 70 10 131 10 l111 0 -3 33 -3 32
-105 2 c-58 1 -122 -3 -143 -9z"/>
<path d="M547 723 c-3 -5 30 -55 72 -113 l76 -105 5 -95 5 -95 30 0 30 0 5 95
5 95 77 105 c42 58 73 109 68 113 -4 5 -20 7 -36 5 -24 -2 -39 -18 -84 -85
-30 -46 -59 -83 -65 -83 -6 0 -25 25 -43 55 -52 86 -80 115 -112 115 -16 0
-31 -3 -33 -7z"/>
<path d="M995 705 c-25 -24 -25 -26 -25 -210 l0 -185 30 0 30 0 0 169 c0 142
3 171 16 182 23 19 43 2 68 -61 52 -126 126 -269 145 -279 36 -20 95 -13 119
12 22 23 22 30 20 208 l-3 184 -27 3 -28 3 -2 -173 -3 -173 -24 0 c-22 0 -33
17 -97 155 -40 85 -82 163 -94 172 -33 27 -95 24 -125 -7z"/>
<path d="M1580 720 c-51 -12 -80 -51 -80 -107 0 -34 6 -53 22 -70 l21 -23 -23
-25 c-33 -35 -33 -105 0 -140 33 -35 78 -45 203 -45 l108 0 -3 38 -3 37 -123
5 c-94 4 -125 8 -132 20 -15 23 -12 45 8 63 15 14 41 17 135 17 l117 0 0 29 0
29 -121 3 c-106 4 -122 6 -135 23 -16 22 -10 55 14 74 11 8 54 12 130 12 l113
0 -3 33 -3 32 -105 2 c-58 1 -121 -2 -140 -7z"/>
<path d="M1938 724 c-5 -4 -8 -20 -8 -36 l0 -28 125 0 c112 0 127 -2 145 -20
27 -27 25 -55 -6 -79 -23 -18 -41 -21 -129 -21 -134 0 -137 -3 -133 -131 l3
-94 30 0 30 0 3 78 3 77 62 0 62 0 46 -78 c40 -67 50 -77 78 -80 41 -4 40 8
-9 91 l-39 68 39 38 c36 34 40 43 40 85 0 58 -20 98 -57 116 -31 15 -273 27
-285 14z"/>
<path d="M2477 719 c-55 -13 -83 -35 -108 -85 -17 -37 -20 -58 -18 -128 4 -72
8 -87 32 -119 37 -48 74 -67 151 -74 114 -10 175 28 184 115 5 58 -17 108 -54
122 -14 6 -52 10 -85 10 -59 0 -59 0 -59 -30 0 -30 1 -30 54 -30 76 0 105 -35
76 -91 -9 -16 -22 -19 -83 -19 -40 0 -82 3 -95 6 -33 9 -52 54 -52 123 0 120
27 141 180 141 l101 0 -3 33 -3 32 -90 2 c-49 1 -107 -3 -128 -8z"/>
<path d="M2780 718 c0 -7 34 -60 75 -118 l75 -105 0 -80 c0 -91 7 -108 41
-103 23 3 24 7 27 93 l3 90 79 110 c43 61 75 114 71 118 -5 5 -21 7 -37 5 -24
-2 -39 -18 -81 -83 -29 -44 -58 -81 -65 -83 -7 -1 -33 30 -58 69 -25 40 -51
78 -58 85 -17 18 -72 18 -72 2z"/>
<path d="M3523 710 c-10 -10 -48 -95 -85 -187 -89 -228 -85 -213 -50 -213 38
0 44 8 86 115 76 196 92 230 111 230 17 0 29 -26 121 -265 27 -70 31 -75 62
-78 42 -4 42 3 -12 141 -24 61 -47 123 -51 137 -16 55 -54 128 -70 134 -35 13
-94 6 -112 -14z"/>
<path d="M4025 718 c-3 -8 -4 -101 -3 -208 l3 -195 30 0 30 0 0 205 0 205 -28
3 c-16 2 -29 -2 -32 -10z"/>
<path d="M3864 386 c-3 -8 -4 -27 -2 -43 3 -24 7 -28 33 -28 28 0 30 3 33 43
3 41 2 42 -28 42 -17 0 -33 -6 -36 -14z"/>
<path d="M4182 358 c3 -40 5 -43 33 -43 28 0 30 3 33 43 l3 42 -36 0 -36 0 3
-42z"/>
</g>
</svg>
